Coordinates
version=1
nRows=12
nColumns=33
inDegrees=yes

Units are S.I. units (second, meters, Newtons, ...)
Angles are in degrees.

endheader
time	ground_thorax_rot_x	ground_thorax_rot_y	ground_thorax_rot_z	ground_thorax_tx	ground_thorax_ty	ground_thorax_tz	clav_prot_r	clav_elev_r	scapula_abduction_r	scapula_elevation_r	scapula_upward_rot_r	scapula_winging_r	shoulder_elv_r	plane_of_elev_r	axial_rot_r	elbow_flexion_r	pro_sup_r	wrist_flex_r	wrist_dev_r	clav_prot_l	clav_elev_l	scapula_abduction_l	scapula_elevation_l	scapula_upward_rot_l	scapula_winging_l	shoulder_elv_l	plane_of_elev_l	axial_rot_l	elbow_flexion_l	pro_sup_l	wrist_flex_l	wrist_dev_l
      3.98000000	    -38.69025015	     -8.45869387	     13.30294531	   -238.20252641	    845.57941142	      5.34008926	      7.87625789	    -45.00000000	     38.98803793	    -45.00000000	    -35.16140958	   2058.01075547	   -467.85948178	    147.04703361	   -113.08315986	   1102.53702725	    134.10070601	     10.57416117	      3.13617150	     -2.36754791	     42.24542917	    -45.00000000	    -45.00000000	     35.89265819	   -600.36555604	    807.96136857	     10.58946688	    179.99999979	   1814.52155881	    202.95649158	      9.83114570	    -15.96840208
      3.99000000	    -38.65073513	     -8.51409230	     13.38939997	   -236.80220632	    845.20631654	      5.38034851	      7.88789904	    -45.00000000	     39.01759886	    -45.00000000	    -34.89425744	   2058.08029651	   -467.87344818	    146.98434667	   -113.25593896	   1102.53379663	    134.05392436	     10.63721910	      3.01076914	     -2.35004768	     42.38034826	    -45.00000000	    -45.00000000	     35.67236915	   -600.34054571	    807.64663402	     10.72193245	    179.99999979	   1814.34683438	    203.16024567	      9.94797639	    -15.99176165
      4.00000000	    -38.59636667	     -8.62777088	     13.54327946	   -235.29444760	    844.78897488	      5.42437083	      7.88202097	    -45.00000000	     39.04712917	    -45.00000000	    -34.65525128	   2058.20546416	   -467.86518528	    146.98722427	   -113.41947266	   1102.53450258	    133.97368538	     10.65930415	      2.92498108	     -2.39538861	     42.39694234	    -45.00000000	    -45.00000000	     35.54505922	   -600.45720234	    807.46817448	     10.65931806	    179.99999979	   1814.18585575	    203.41485655	     10.02308369	    -15.98552162
      4.01000000	    -38.52736687	     -7.89240205	     12.58499478	   -233.67512325	    844.31956411	      5.47227918	      7.58833180	    -45.00000000	     40.02754595	    -45.00000000	    -32.85039190	   2057.76450828	   -468.32357609	    146.76727405	   -114.02058032	   1102.49650406	    133.78189432	     10.69570453	      2.87287440	     -1.96524796	     41.94812406	    -45.00000000	    -45.00000000	     38.70497427	   -599.58115289	    807.88795394	     10.91836339	    179.99999979	   1814.61522100	    203.99992104	     10.15612428	    -15.97006610
      4.02000000	    -38.50335806	     -8.19559144	     12.92427100	   -231.93639505	    843.78858826	      5.52415320	      7.73609585	    -45.00000000	     39.90433049	    -45.00000000	    -33.00881601	   2057.96376714	   -468.30852140	    146.66826169	   -113.85003885	   1102.49050659	    133.48337392	     10.67644652	      2.83780756	     -2.17507665	     42.21731813	    -45.00000000	    -45.00000000	     37.57033695	   -599.80880323	    807.34283739	     11.02815033	    179.99999979	   1814.29975332	    204.31279310	     10.27253496	    -15.97616928
      4.03000000	    -38.38442787	     -7.69165249	     12.28216150	   -230.07595909	    843.18583251	      5.57922725	      7.52284334	    -45.00000000	     40.33318829	    -45.00000000	    -30.86083788	   2058.26376594	   -468.09869943	    147.11745420	   -114.26937962	   1102.53573026	    132.94416999	     11.03037106	      2.38608849	     -2.98820404	     41.32347600	    -45.00000000	    -45.00000000	     42.07558778	   -599.30844034	    808.85163666	     10.55029592	    179.99999979	   1814.73181343	    204.99288383	      9.90480033	    -15.50310684
      4.04000000	    -38.33314662	     -7.68981733	     12.24599206	   -228.09871375	    842.50402515	      5.63607015	      7.55409966	    -45.00000000	     40.44260455	    -45.00000000	    -30.19058876	   2058.42795948	   -468.10827976	    147.13170442	   -114.54269812	   1102.49357381	    132.25477535	     11.18115456	      2.21650221	     -3.17589600	     41.21551240	    -45.00000000	    -45.00000000	     42.87147978	   -599.17907643	    808.89056610	     10.55918224	    179.99999979	   1814.68375162	    205.46591878	      9.90617440	    -15.36446976
      4.05000000	    -38.26129829	     -7.62584410	     12.12704096	   -226.00184654	    841.73298957	      5.69281425	      7.59546937	    -45.00000000	     40.67112772	    -45.00000000	    -29.46416992	   2058.55610495	   -468.15826732	    147.11194514	   -114.87578844	   1102.47890441	    131.43565916	     11.34487908	      2.04517097	     -3.39771044	     41.05147410	    -45.00000000	    -45.00000000	     43.76761067	   -598.98933797	    808.93294471	     10.59592370	    179.99999979	   1814.65583056	    205.94596583	      9.90837908	    -15.22535718
      4.06000000	    -38.22709408	     -7.60631485	     12.05358647	   -223.78394539	    840.86296359	      5.74706455	      7.55741478	    -45.00000000	     40.87783078	    -45.00000000	    -28.74422189	   2058.64861491	   -468.28027655	    147.08548198	   -115.21422184	   1102.42555463	    130.37244485	     11.50371497	      1.91488836	     -3.68415452	     40.91718785	    -45.00000000	    -45.00000000	     44.62151451	   -598.80445333	    808.92443932	     10.63569192	    179.99999979	   1814.63463365	    206.45796289	      9.90457038	    -15.07188232
      4.07000000	    -38.13983981	     -7.67415548	     12.06820416	   -221.45072964	    839.89031707	      5.79686170	      7.57366482	    -45.00000000	     41.09780252	    -45.00000000	    -28.14919680	   2058.77364132	   -468.32481987	    147.04883234	   -115.63876806	   1102.34660470	    129.17316929	     11.73036589	      1.73819689	     -3.64092010	     40.88174085	    -45.00000000	    -45.00000000	     45.00000000	   -598.70302529	    808.74923806	     10.60710182	    179.99999979	   1814.51758186	    206.93640084	      9.96692246	    -15.02696416
      4.08000000	    -38.09541658	     -7.86809866	     12.18918435	   -219.00019175	    838.80644577	      5.83928831	      7.56330886	    -45.00000000	     41.35383501	    -45.00000000	    -27.66988791	   2059.00364470	   -468.37971751	    147.15576877	   -116.11815413	   1102.31421962	    127.84632493	     12.00532405	      1.52092601	     -3.41432607	     40.86034798	    -45.00000000	    -45.00000000	     45.00000000	   -598.83517623	    808.58695077	     10.51306758	    179.99999979	   1814.45744999	    207.41424016	     10.05255232	    -15.00632033
      4.09000000	    -38.04897223	     -7.99654432	     12.30861115	   -216.43913601	    837.60828209	      5.87004280	      7.54568862	    -45.00000000	     41.38642721	    -45.00000000	    -27.19257839	   2059.14273731	   -468.53422323	    147.08228233	   -116.43261532	   1102.19903788	    126.21497951	     12.24658281	      1.41607045	     -3.61043481	     40.92639821	    -45.00000000	    -45.00000000	     45.00000000	   -598.66917189	    808.19879252	     10.61642421	    179.99999979	   1814.23780368	    207.88870826	     10.07114461	    -14.90643448
